<svg width="32" height="24" fill="none" xmlns="http://www.w3.org/2000/svg"><path fill-rule="evenodd" clip-rule="evenodd" d="M16 0c8.8 0 16 7.174 16 15.941V24h-5.434v-7.071c0-5.79-4.754-10.527-10.566-10.527-5.812 0-10.566 4.737-10.566 10.527V24H0v-8.059C0 7.175 7.2 0 16 0zm0 1.417c-.987 0-1.787.797-1.787 1.78s.8 1.78 1.787 1.78c.987 0 1.787-.797 1.787-1.78s-.8-1.78-1.787-1.78zM2.667 16.88c-.987 0-1.787.797-1.787 1.78 0 .984.8 1.78 1.787 1.78.986 0 1.786-.796 1.786-1.78 0-.983-.8-1.78-1.786-1.78zm26.666 0c-.986 0-1.786.797-1.786 1.78 0 .984.8 1.78 1.786 1.78.987 0 1.787-.796 1.787-1.78a1.785 1.785 0 00-1.787-1.78z" fill="#686A6E"/><path fill-rule="evenodd" clip-rule="evenodd" d="M16 8.422c4.869 0 8.851 3.967 8.851 8.818V24H7.149v-6.76c0-4.85 3.983-8.818 8.851-8.818zm3.987 11.416c0 .317.261.578.58.578h1.962a.58.58 0 00.579-.578.58.58 0 00-.58-.576h-1.962a.581.581 0 00-.579.576z" fill="url(#paint0_linear)"/><defs><linearGradient id="paint0_linear" x1="16" y1="8.422" x2="16" y2="24" gradientUnits="userSpaceOnUse"><stop stop-color="#F8B82C"/><stop offset="1" stop-color="#FC8800"/></linearGradient></defs></svg>