<svg width="334" height="36" fill="none" xmlns="http://www.w3.org/2000/svg"><path d="M.768 34.397L9.518 1.29h14.897l8.75 33.107h-7.332l-1.894-7.333H9.989l-1.894 7.333H.768zm10.876-13.95h10.644L18.977 7.913h-4.021l-3.312 12.532zm24.833 13.95V1.29h22.7v6.624H43.57v26.488h-7.094v-.005zm26.488 0V1.29h15.373c3.94 0 7.135 1.11 9.575 3.332 2.44 2.223 3.666 4.973 3.666 8.254 0 3.281-1.22 6.03-3.666 8.254-2.446 2.223-5.636 3.337-9.575 3.337h-8.28v9.93h-7.094zm7.094-16.553h8.04c1.955 0 3.47-.456 4.543-1.373 1.073-.916 1.61-2.111 1.61-3.595s-.537-2.679-1.61-3.595c-1.074-.917-2.588-1.372-4.542-1.372h-8.041v9.934zm29.82 12.416c-3.484-3.388-5.226-7.53-5.226-12.417 0-4.886 1.742-9.023 5.226-12.416 3.483-3.387 7.813-5.083 12.983-5.083 5.17 0 9.499 1.696 12.983 5.083 3.484 3.388 5.226 7.53 5.226 12.416 0 4.887-1.742 9.029-5.226 12.417-3.484 3.387-7.813 5.083-12.983 5.083-5.175 0-9.5-1.69-12.983-5.083zm5.342-20.245c-2.005 2.036-3.003 4.643-3.003 7.828 0 3.186 1.003 5.793 3.003 7.829 2 2.035 4.547 3.048 7.636 3.048 3.089 0 5.636-1.018 7.636-3.048 2-2.036 3.002-4.643 3.002-7.829 0-3.184-1.002-5.792-3.002-7.828-2.005-2.036-4.547-3.048-7.636-3.048-3.089 0-5.636 1.018-7.636 3.048zm26.083-2.101V1.29h28.376v6.624h-10.643v26.488h-7.095V7.914h-10.638zm33.815 26.483V1.29h24.832v6.624h-17.738v6.623h14.188v6.147h-14.188v7.094h17.738v6.624h-24.832v-.005zm27.197 0l8.512-16.316-8.041-16.79h7.565l6.147 13.479h2.365l6.147-13.48h7.565l-8.031 16.791 8.512 16.316h-7.661l-6.527-13.009h-2.365l-6.527 13.009h-7.661zm34.291 0V1.29h7.094V14.3h4.729l8.988-13.009h8.041l-10.876 15.845 11.585 17.262h-8.279l-9.221-13.48h-4.967v13.48h-7.094z" fill="#3B3D41"/><path d="M260.447 30.26c-3.484-3.388-5.226-7.53-5.226-12.417 0-4.886 1.742-9.023 5.226-12.416C263.931 2.04 268.26.344 273.43.344c5.17 0 9.5 1.696 12.984 5.083 3.483 3.388 5.225 7.53 5.225 12.416 0 4.887-1.742 9.029-5.225 12.417-3.484 3.387-7.814 5.083-12.984 5.083-5.175 0-9.499-1.69-12.983-5.083zm5.342-20.245c-2 2.036-3.002 4.643-3.002 7.828 0 3.186 1.002 5.793 3.002 7.829 2 2.035 4.547 3.048 7.641 3.048 3.089 0 5.636-1.018 7.636-3.048 2.001-2.036 3.003-4.643 3.003-7.829 0-3.184-1.002-5.792-3.003-7.828-2.005-2.036-4.547-3.048-7.636-3.048-3.094 0-5.641 1.018-7.641 3.048zm29.633 24.382V1.29h10.644l8.041 18.918h1.185l8.041-18.918h10.644v33.107h-7.095V13.352l.471-4.259h-.471l-7.565 17.738h-9.221l-7.565-17.738h-.471l.471 4.259v21.045h-7.109z" fill="#3B3D41"/></svg>