<svg width="200" height="24" fill="none" xmlns="http://www.w3.org/2000/svg"><path d="M40.768 23.55l4.164-15.756h7.09l4.163 15.755h-3.489l-.901-3.489h-6.64l-.9 3.49h-3.487zm5.176-6.64h5.065l-1.576-5.964H47.52l-1.576 5.964zm11.818 6.64V7.793h10.803v3.152h-7.427v12.606h-3.376v-.003zm12.605 0V7.793h7.316c1.875 0 3.396.528 4.557 1.586 1.162 1.058 1.745 2.366 1.745 3.928 0 1.561-.58 2.87-1.745 3.928-1.164 1.058-2.682 1.588-4.557 1.588h-3.94v4.725h-3.376zm3.376-7.878h3.827c.93 0 1.65-.217 2.162-.653.51-.436.766-1.005.766-1.711 0-.706-.255-1.275-.766-1.711-.511-.436-1.232-.653-2.162-.653h-3.827v4.728zm14.191 5.908c-1.658-1.612-2.487-3.583-2.487-5.908 0-2.326.83-4.295 2.487-5.91 1.658-1.611 3.719-2.418 6.179-2.418 2.46 0 4.52.807 6.179 2.419 1.658 1.612 2.486 3.583 2.486 5.909 0 2.325-.828 4.296-2.486 5.909C98.634 23.193 96.573 24 94.112 24c-2.462 0-4.52-.805-6.178-2.42zm2.543-9.634c-.955.969-1.43 2.21-1.43 3.726 0 1.515.478 2.756 1.43 3.725.951.969 2.163 1.451 3.633 1.451 1.47 0 2.683-.484 3.634-1.45.952-.97 1.43-2.21 1.43-3.726s-.478-2.757-1.43-3.726c-.954-.969-2.164-1.45-3.633-1.45-1.47 0-2.683.484-3.635 1.45zm12.413-1V7.794h13.504v3.152h-5.065v12.606h-3.376V10.946h-5.063zm16.092 12.604V7.793H130.8v3.152h-8.441v3.152h6.752v2.926h-6.752V20.4h8.441v3.152h-11.818v-.003zm12.943 0l4.051-7.765-3.827-7.99h3.6l2.926 6.414h1.125l2.925-6.415h3.601l-3.822 7.991 4.051 7.764h-3.646l-3.107-6.19h-1.125l-3.106 6.19h-3.646zm16.319 0V7.793h3.376v6.19h2.251l4.277-6.19h3.827l-5.176 7.54 5.514 8.215h-3.94l-4.389-6.415h-2.364v6.415h-3.376z" fill="#3B3D41"/><path d="M164.349 21.58c-1.658-1.612-2.487-3.583-2.487-5.908 0-2.326.829-4.295 2.487-5.91 1.658-1.611 3.719-2.418 6.179-2.418 2.46 0 4.521.807 6.179 2.419 1.658 1.612 2.487 3.583 2.487 5.909 0 2.325-.829 4.296-2.487 5.909-1.658 1.612-3.719 2.419-6.179 2.419-2.463 0-4.521-.805-6.179-2.42zm2.543-9.634c-.952.969-1.429 2.21-1.429 3.726 0 1.515.477 2.756 1.429 3.725.951.969 2.164 1.451 3.636 1.451 1.47 0 2.682-.484 3.634-1.45.952-.97 1.429-2.21 1.429-3.726s-.477-2.757-1.429-3.726c-.954-.969-2.164-1.45-3.634-1.45-1.472 0-2.685.484-3.636 1.45zm14.101 11.604V7.793h5.066l3.826 9.003h.564l3.827-9.003h5.065V23.55h-3.376V13.534l.224-2.026h-.224l-3.6 8.441h-4.388l-3.6-8.441h-.225l.225 2.026V23.55h-3.384z" fill="#3B3D41"/><path fill-rule="evenodd" clip-rule="evenodd" d="M16 0c8.8 0 16 7.174 16 15.941V24h-5.434v-7.071c0-5.79-4.754-10.527-10.566-10.527-5.812 0-10.566 4.737-10.566 10.527V24H0v-8.059C0 7.175 7.2 0 16 0zm0 1.417c-.987 0-1.787.797-1.787 1.78s.8 1.78 1.787 1.78c.987 0 1.787-.797 1.787-1.78s-.8-1.78-1.787-1.78zM2.667 16.88c-.987 0-1.787.797-1.787 1.78 0 .984.8 1.78 1.787 1.78.986 0 1.786-.796 1.786-1.78 0-.983-.8-1.78-1.786-1.78zm26.666 0c-.986 0-1.786.797-1.786 1.78 0 .984.8 1.78 1.786 1.78.987 0 1.787-.796 1.787-1.78a1.785 1.785 0 00-1.787-1.78z" fill="#686A6E"/><path fill-rule="evenodd" clip-rule="evenodd" d="M16 8.422c4.869 0 8.851 3.967 8.851 8.818V24H7.149v-6.76c0-4.85 3.983-8.818 8.851-8.818zm3.987 11.416c0 .317.261.578.58.578h1.962a.58.58 0 00.579-.578.58.58 0 00-.58-.576h-1.962a.581.581 0 00-.579.576z" fill="url(#paint0_linear)"/><defs><linearGradient id="paint0_linear" x1="16" y1="8.422" x2="16" y2="24" gradientUnits="userSpaceOnUse"><stop stop-color="#F8B82C"/><stop offset="1" stop-color="#FC8800"/></linearGradient></defs></svg>